<svg enable-background="new 0 0 512 512" height="512" viewBox="0 0 512 512" width="512" xmlns="http://www.w3.org/2000/svg"><path d="m204.064 46.682v22.018h-56.302v-68.199h56.302v24.13h-32.172v22.051zm57.877-22.051h22.492v-24.13h-56.308v24.13c7.533 7.533 11.461 11.139 22.356 22.034-6.369 0-22.356.022-22.356.021v22.014h56.308v-22.018zm79.805 0h22.49v-24.13h-56.306v24.13c7.531 7.533 11.461 11.139 22.355 22.034-6.365 0-22.355.022-22.355.021v22.014h56.307v-22.018zm96.649 76.481-34.203 370.486-148.193 39.9-148.196-39.9-34.198-370.486zm-68.918 75.332h-113.612-115.62l5.529 44.739h110.091 6.184l-6.184 2.574-106.067 44.177 3.518 43.73 102.549.333 54.963.175-3.521 58.311-51.442 14.484v-.046l-.422.116-49.684-12.542-3.015-36.195h-.164-46.085-.162l6.032 69.876 93.5 27.649v-.05l.168.05 93-27.146 12.067-138.744h-105.235-.26l.26-.112 109.086-46.639z"/></svg>