<svg xmlns="http://www.w3.org/2000/svg" width="32" height="32" fill="none"><g fill="#000"><path d="M15.521 18.013v-4.026h-2.078a2.013 2.013 0 0 0-.012 4.026h.013zM11.43 21.006c0-1.107.895-2.006 2-2.012h2.092v1.98a2.06 2.06 0 0 1-2.062 2.045 2.027 2.027 0 0 1-2.03-2.012zM18.515 18.013a2.013 2.013 0 1 1 0-4.026h.065a2.013 2.013 0 0 1 0 4.026zM18.58 13.007h-2.078V8.98h2.078a2.013 2.013 0 0 1 0 4.026zM13.444 8.98h2.077v4.027h-2.078a2.013 2.013 0 0 1 0-4.026z"/><path fill-rule="evenodd" d="M0 0h32v32H0zm13.444 8a2.994 2.994 0 0 0-1.643 5.497A2.99 2.99 0 0 0 10.45 16a2.99 2.99 0 0 0 1.351 2.503 2.99 2.99 0 0 0-1.351 2.503c0 1.658 1.36 2.994 3.01 2.994 1.667 0 3.042-1.35 3.042-3.026v-2.758a2.983 2.983 0 0 0 2.013.778h.065a2.994 2.994 0 0 0 1.642-5.497A2.994 2.994 0 0 0 18.58 8z" clip-rule="evenodd"/></g></svg>