<svg xmlns="http://www.w3.org/2000/svg" width="322" height="322" fill="none"><path fill="#000" fill-rule="evenodd" d="M319.971 150.479c-5.2-79.77-69.114-143.526-148.949-148.48l.124-1.997c80.84 5.017 145.555 69.573 150.821 150.346l-1.996.131ZM150.98 1.999C71.144 6.952 7.231 70.708 2.03 150.478l-1.995-.131C5.301 69.575 70.015 5.018 150.856.002l.124 1.996Zm92.859 65.016c-47.156-41.647-118.153-41.74-165.4-.278l-1.319-1.503c48.004-42.127 120.133-42.03 168.043.282l-1.324 1.498Zm-88.369 6.257c-44.057 2.733-79.328 37.911-82.197 81.922l-1.996-.13c2.935-45.015 39.008-80.992 84.07-83.788l.123 1.996Zm93.259 81.922c-2.87-44.011-38.141-79.189-82.198-81.922l.124-1.996c45.062 2.796 81.135 38.773 84.07 83.788l-1.996.13Zm6.534 88.367c41.463-47.247 41.369-118.244-.277-165.4l1.499-1.324c42.312 47.911 42.408 120.04.282 168.043l-1.504-1.319ZM66.738 78.438c-41.462 47.247-41.368 118.244.278 165.4l-1.5 1.324c-42.312-47.91-42.407-120.039-.281-168.043l1.503 1.32Zm6.535 88.368c2.87 44.011 38.14 79.188 82.197 81.922l-.123 1.996c-45.062-2.796-81.135-38.773-84.07-83.788l1.996-.13Zm150.944 55.281c14.036-14.517 23.115-33.852 24.512-55.281l1.996.13c-1.43 21.919-10.717 41.696-25.07 56.541-15.125 15.642-35.879 25.812-59 27.247l-.124-1.996c22.604-1.403 42.895-11.345 57.686-26.641ZM2.031 171.522c5.2 79.769 69.113 143.525 148.949 148.48l-.124 1.996C70.016 316.981 5.301 252.425.036 171.652l1.995-.13Zm273.522 100.195c25.434-26.31 41.886-61.354 44.418-100.195l1.996.13c-2.564 39.331-19.225 74.817-44.976 101.455-27.135 28.068-64.367 46.317-105.845 48.891l-.124-1.996c40.961-2.542 77.73-20.562 104.531-48.285Zm-197.39-16.732c24.193 21.367 54.662 31.796 84.983 31.287 28.776-.484 57.411-10.821 80.416-31.01l1.319 1.504c-23.374 20.512-52.47 31.014-81.701 31.505-30.801.518-61.76-10.077-86.342-31.787l1.324-1.499Z" clip-rule="evenodd"/></svg>